<svg xmlns="http://www.w3.org/2000/svg" viewBox="0 0 16 16" shape-rendering="crispEdges">

  <!-- Dark outline -->
  <rect x="5" y="1" width="6" height="1" fill="#3A0A5A"></rect>
  <rect x="3" y="2" width="2" height="1" fill="#3A0A5A"></rect>
  <rect x="11" y="2" width="2" height="1" fill="#3A0A5A"></rect>
  <rect x="2" y="3" width="1" height="2" fill="#3A0A5A"></rect>
  <rect x="13" y="3" width="1" height="2" fill="#3A0A5A"></rect>
  <rect x="1" y="5" width="1" height="6" fill="#3A0A5A"></rect>
  <rect x="14" y="5" width="1" height="6" fill="#3A0A5A"></rect>
  <rect x="2" y="11" width="1" height="2" fill="#3A0A5A"></rect>
  <rect x="13" y="11" width="1" height="2" fill="#3A0A5A"></rect>
  <rect x="3" y="13" width="2" height="1" fill="#3A0A5A"></rect>
  <rect x="11" y="13" width="2" height="1" fill="#3A0A5A"></rect>
  <rect x="5" y="14" width="6" height="1" fill="#3A0A5A"></rect>

  <!-- Main orb -->
  <rect x="5" y="2" width="6" height="1" fill="#A93DFF"></rect>
  <rect x="3" y="3" width="10" height="2" fill="#A93DFF"></rect>
  <rect x="2" y="5" width="12" height="6" fill="#A93DFF"></rect>
  <rect x="3" y="11" width="10" height="2" fill="#A93DFF"></rect>
  <rect x="5" y="13" width="6" height="1" fill="#A93DFF"></rect>

  <!-- Midtones -->
  <rect x="5" y="4" width="6" height="1" fill="#C86BFF"></rect>
  <rect x="4" y="5" width="7" height="4" fill="#C86BFF"></rect>
  <rect x="5" y="9" width="6" height="2" fill="#B858FF"></rect>

  <!-- Highlights -->
  <rect x="4" y="4" width="1" height="1" fill="#FFFFFF"></rect>
  <rect x="5" y="3" width="2" height="2" fill="#F8D8FF"></rect>
  <rect x="7" y="4" width="1" height="1" fill="#FFFFFF"></rect>
  <rect x="10" y="10" width="2" height="1" fill="#F8D8FF"></rect>
  <rect x="11" y="9" width="1" height="1" fill="#FFFFFF"></rect>
</svg>